mastitorrents.com
 
http://mastitorrents.com/forums/index.php

Video
ID : 1
Format : WMV2
Codec ID : WMV2
Codec ID/Info : Windows Media Video 8
Description of the codec : wmv2
Duration : 27mn 38s
Bit rate : 4 849 Kbps
Width : 1 280 pixels
Height : 720 pixels
Display aspect ratio : 16:9
Frame rate : 25.000 fps
Bit depth : 8 bits
Bits/(Pixel*Frame) : 0.210
Stream size : 958 MiB (93%)

Audio
ID : 2
Format : WMA
Format version : Version 2
Codec ID : 161
Codec ID/Info : Windows Media Audio
Description of the codec : Windows Media Audio V8
Duration : 27mn 38s
Bit rate : 128 Kbps
Channel(s) : 2 channels
Sampling rate : 44.1 KHz
Bit depth : 16 bits
Stream size : 25.3 MiB (2%) 